<?xml version="1.0"?>
<svg width="283.46" height="159.391" xmlns="http://www.w3.org/2000/svg" xmlns:svg="http://www.w3.org/2000/svg" enable-background="new 0 0 283.46 159.391" version="1.1" xml:space="preserve">
 <g class="layer">
  <title>Layer 1</title>
  <g id="svg_5"/>
  <g id="svg_6"/>
  <g id="svg_7"/>
  <g id="svg_8"/>
  <g id="svg_9"/>
  <g id="svg_10"/>
  <g id="svg_11">
   <g id="PMMS">
    <g id="MS">
     <linearGradient id="SVGID_1_" x1="0.5" x2="0.5" y1="1" y2="0">
      <stop offset="0" stop-color="#007236"/>
      <stop offset="0.5" stop-color="#00974A"/>
      <stop offset="1" stop-color="#48B749"/>
     </linearGradient>
     <path d="m246.11,63.38c-1.28,-2.27 -3.33,-4.17 -6.15,-5.7c-2.82,-1.53 -7.49,-3.05 -14,-4.55c-2.64,-0.58 -4.31,-1.21 -5.01,-1.89c-0.72,-0.65 -1.09,-1.39 -1.09,-2.2c0,-1.13 0.44,-2.08 1.32,-2.86c0.88,-0.79 2.18,-1.18 3.92,-1.18c2.1,0 3.76,0.53 4.95,1.58c1.19,1.05 1.98,2.73 2.35,5.05l7,-0.44c1.71,-0.09 7,-0.43 6.21,-4.6c-0.35,-1.89 -1.24,-3.3 -2,-4.37c0,0 0,0 0,-0.01c-0.17,-0.24 -0.34,-0.46 -0.49,-0.67c-0.02,-0.03 -0.05,-0.06 -0.07,-0.08c-0.03,-0.04 -0.05,-0.08 -0.08,-0.12c-0.67,-0.85 -1.43,-1.6 -2.29,-2.24c-3.24,-2.44 -7.94,-3.67 -14.1,-3.67c-5.03,0 -8.98,0.68 -11.87,2.02c-2.88,1.34 -5.04,3.19 -6.48,5.54c-1.44,2.35 -2.16,4.84 -2.16,7.49c0,4.01 1.41,7.32 4.22,9.92c2.78,2.59 7.45,4.67 13.98,6.24c4,0.93 6.54,1.93 7.63,2.98c1.1,1.05 1.65,2.24 1.65,3.57c0,1.4 -0.57,2.64 -1.73,3.7c-1.15,1.07 -2.79,1.6 -4.91,1.6c-2.86,0 -5.05,-1.04 -6.59,-3.12c-0.35,-0.47 -0.65,-1.03 -0.91,-1.67c-0.01,-0.01 -0.01,-0.02 -0.01,-0.03c-0.03,-0.08 -0.06,-0.16 -0.1,-0.24c-0.29,-0.69 -0.71,-1.32 -1.23,-1.83c-0.97,-0.97 -2.28,-1.57 -3.72,-1.57l-0.06,0l-0.57,0.04l-9.45,0.63c0.41,5.19 2.2,9.47 5.36,12.83c3.16,3.37 8.84,5.05 17.05,5.05c4.67,0 8.54,-0.72 11.61,-2.15c3.08,-1.44 5.47,-3.55 7.18,-6.33c1.71,-2.78 2.56,-5.82 2.56,-9.12c0,-2.8 -0.64,-5.34 -1.92,-7.6z" fill="url(#SVGID_1_)" id="svg_1"/>
     <linearGradient id="SVGID_2_" x1="0.5" x2="0.5" y1="1" y2="0">
      <stop offset="0" stop-color="#007236"/>
      <stop offset="0.5" stop-color="#00974A"/>
      <stop offset="1" stop-color="#48B749"/>
     </linearGradient>
     <path d="m198.01,42.08l0,39.86c0,3.65 -2.81,6.64 -6.25,6.64l-6.25,0l0,-43.18l-1.13,3.29l-8.35,24.51l0,0c-1.12,2.93 -3.12,5.42 -6.15,5.42c-3.04,0 -5.09,-2.5 -6.16,-5.42l0,0l-8.35,-24.51l-1.12,-3.29l0,36.54c0,3.65 -2.82,6.64 -6.26,6.64l-6.25,0l0,-53.15l14.44,0c2.29,0.14 4.38,1.56 5.23,3.69c0.15,0.4 0.53,1.63 0.53,1.63l7.94,24.58l7.94,-24.58c0,0 0.37,-1.23 0.53,-1.63c0.91,-2.26 3.16,-3.69 5.6,-3.69l7.81,0c3.44,0 6.25,2.99 6.25,6.65z" fill="url(#SVGID_2_)" id="svg_2"/>
    </g>
    <g id="PM">
     <linearGradient id="SVGID_3_" x1="0.5" x2="0.5" y1="0" y2="1">
      <stop offset="0" stop-color="#002E6E"/>
      <stop offset="0.5" stop-color="#034EA2"/>
      <stop offset="1" stop-color="#0066B3"/>
     </linearGradient>
     <path d="m71.68,45.4c-2.44,-5.85 -7.94,-9.97 -14.35,-9.97l-21.88,0l0,53.15l6.25,0c3.44,0 6.25,-2.99 6.25,-6.64l0,-13.29l9.38,0c6.41,0 11.91,-4.12 14.35,-9.96c0.81,-2.03 1.28,-4.29 1.28,-6.65c0,-2.36 -0.47,-4.62 -1.28,-6.64zm-23.73,13.29l0,-13.29l6.26,0c3.44,0 6.25,2.99 6.25,6.64c0,3.66 -2.82,6.65 -6.25,6.65l-6.26,0z" fill="url(#SVGID_3_)" id="svg_3"/>
     <linearGradient id="SVGID_4_" x1="0.5" x2="0.5" y1="0" y2="1">
      <stop offset="0" stop-color="#002E6E"/>
      <stop offset="0.5" stop-color="#034EA2"/>
      <stop offset="1" stop-color="#0066B3"/>
     </linearGradient>
     <path d="m135.49,42.08l0,39.86c0,3.65 -2.82,6.64 -6.26,6.64l-6.25,0l0,-43.18l-1.12,3.29l-8.35,24.51l0,0c-1.12,2.93 -3.13,5.42 -6.16,5.42c-3.03,0 -5.09,-2.5 -6.16,-5.42l0,0l-8.35,-24.51l-1.12,-3.29l0,36.54c0,3.65 -2.81,6.64 -6.25,6.64l-6.26,0l0,-53.15l14.45,0c2.28,0.14 4.37,1.56 5.22,3.69c0.15,0.4 0.53,1.63 0.53,1.63l7.94,24.58l7.94,-24.58c0,0 0.38,-1.23 0.53,-1.63c0.91,-2.26 3.16,-3.69 5.6,-3.69l7.82,0c3.43,0 6.25,2.99 6.25,6.65z" fill="url(#SVGID_4_)" id="svg_4"/>
    </g>
   </g>
   <path d="m36.99,109.37l0,4.42l-1.54,0l0,-11.69l3.62,0c1.4,0 2.49,0.31 3.27,0.92s1.16,1.46 1.16,2.57c0,1.11 -0.43,2.02 -1.29,2.72c-0.86,0.71 -2.02,1.06 -3.48,1.06l-1.74,0zm0,-6.03l0,4.79l1.62,0c1.06,0 1.87,-0.21 2.43,-0.65c0.56,-0.43 0.84,-1.04 0.84,-1.82c0,-1.55 -1.02,-2.32 -3.08,-2.32l-1.81,0zm19.6,10.64c-1.87,0 -3.36,-0.54 -4.49,-1.63c-1.12,-1.1 -1.68,-2.52 -1.68,-4.27c0,-1.88 0.57,-3.38 1.71,-4.5c1.15,-1.11 2.71,-1.67 4.68,-1.67c1.82,0 3.28,0.54 4.39,1.63c1.11,1.08 1.67,2.5 1.67,4.26c0,1.9 -0.57,3.41 -1.71,4.52s-2.66,1.66 -4.57,1.66zm0.11,-10.84c-1.39,0 -2.51,0.45 -3.37,1.33c-0.86,0.89 -1.3,2.05 -1.3,3.49c0,1.44 0.43,2.6 1.27,3.48c0.84,0.87 1.94,1.31 3.29,1.31c1.44,0 2.58,-0.42 3.41,-1.25c0.83,-0.84 1.25,-2.01 1.25,-3.51c0,-1.55 -0.4,-2.74 -1.21,-3.58c-0.81,-0.84 -1.92,-1.27 -3.34,-1.27zm20.89,10.65l-6.83,0l0,-11.69l1.54,0l0,10.45l5.29,0l0,1.24zm10.27,-15.44l-2.41,2.68l-1.16,0l2.04,-2.68l1.53,0zm-1.41,15.44l-1.54,0l0,-11.69l1.54,0l0,11.69zm17.73,-0.49c-0.98,0.46 -2.19,0.68 -3.64,0.68c-1.87,0 -3.37,-0.53 -4.5,-1.6c-1.12,-1.07 -1.69,-2.48 -1.69,-4.21c0,-1.87 0.64,-3.38 1.9,-4.53c1.27,-1.16 2.88,-1.73 4.82,-1.73c1.25,0 2.29,0.16 3.11,0.48l0,1.46c-0.95,-0.47 -1.99,-0.7 -3.13,-0.7c-1.51,0 -2.73,0.44 -3.67,1.34c-0.94,0.9 -1.41,2.1 -1.41,3.6c0,1.42 0.44,2.55 1.32,3.4c0.87,0.84 2.03,1.26 3.45,1.26c1.32,0 2.47,-0.26 3.44,-0.78l0,1.33zm9.52,0.49l-1.54,0l0,-11.69l1.54,0l0,11.69zm18.96,0l-1.71,0l-1.4,-3.28l-5.58,0l-1.31,3.28l-1.72,0l5.05,-11.69l1.6,0l5.07,11.69zm-3.61,-4.51l-2.07,-4.98c-0.07,-0.16 -0.13,-0.42 -0.2,-0.78l-0.04,0c-0.06,0.33 -0.13,0.59 -0.21,0.78l-2.05,4.98l4.57,0zm34.72,4.51l-1.53,0l0,-7.84c0,-0.62 0.04,-1.38 0.13,-2.28l-0.04,0c-0.15,0.53 -0.28,0.91 -0.4,1.14l-4.49,8.98l-0.76,0l-4.49,-8.92c-0.12,-0.26 -0.26,-0.66 -0.39,-1.2l-0.04,0c0.05,0.47 0.07,1.24 0.07,2.3l0,7.82l-1.48,0l0,-11.69l2.04,0l4.04,8.15c0.31,0.63 0.51,1.1 0.6,1.41l0.06,0c0.26,-0.65 0.47,-1.12 0.63,-1.44l4.12,-8.12l1.93,0l0,11.69zm10.3,0l-1.54,0l0,-11.69l1.54,0l0,11.69zm15.6,0l-6.83,0l0,-11.69l1.54,0l0,10.45l5.29,0l0,1.24zm8.86,0l-1.54,0l0,-11.69l1.54,0l0,11.69zm16.55,-10.45l-3.8,0l0,10.45l-1.54,0l0,-10.45l-3.79,0l0,-1.24l9.13,0l0,1.24zm16.27,10.45l-1.7,0l-1.4,-3.28l-5.58,0l-1.31,3.28l-1.72,0l5.05,-11.69l1.6,0l5.06,11.69zm-3.6,-4.51l-2.07,-4.98c-0.07,-0.16 -0.13,-0.42 -0.2,-0.78l-0.04,0c-0.06,0.33 -0.13,0.59 -0.21,0.78l-2.05,4.98l4.57,0zm20.28,4.51l-1.84,0l-2.2,-3.28c-0.2,-0.3 -0.4,-0.56 -0.59,-0.78c-0.19,-0.21 -0.38,-0.39 -0.58,-0.52c-0.2,-0.14 -0.41,-0.24 -0.64,-0.3c-0.23,-0.06 -0.49,-0.09 -0.78,-0.09l-1.27,0l0,4.97l-1.54,0l0,-11.69l3.93,0c0.58,0 1.11,0.06 1.59,0.19c0.49,0.13 0.91,0.32 1.27,0.59c0.36,0.26 0.64,0.58 0.84,0.97c0.2,0.39 0.3,0.84 0.3,1.36c0,0.41 -0.06,0.79 -0.2,1.13c-0.14,0.34 -0.34,0.64 -0.59,0.9c-0.25,0.27 -0.56,0.5 -0.92,0.68c-0.36,0.19 -0.76,0.34 -1.2,0.44l0,0.03c0.22,0.09 0.41,0.19 0.57,0.3c0.16,0.11 0.32,0.25 0.46,0.4c0.15,0.15 0.3,0.32 0.44,0.52c0.14,0.19 0.31,0.41 0.48,0.67l2.47,3.51zm-7.89,-10.45l0,4.24l2.09,0c0.38,0 0.74,-0.05 1.07,-0.16c0.33,-0.1 0.61,-0.25 0.85,-0.44c0.24,-0.19 0.42,-0.43 0.56,-0.71c0.13,-0.28 0.2,-0.59 0.2,-0.94c0,-0.63 -0.23,-1.11 -0.68,-1.46c-0.46,-0.35 -1.12,-0.53 -1.98,-0.53l-2.11,0z" fill="#ffffff" id="PolíciaMilitar"/>
   <path d="m42.95,123.91l-1.47,0l0,-3.67c0,-0.4 0.02,-0.84 0.06,-1.32l-0.04,0c-0.08,0.38 -0.14,0.65 -0.21,0.82l-1.54,4.17l-1.22,0l-1.57,-4.13c-0.04,-0.11 -0.11,-0.4 -0.21,-0.86l-0.04,0c0.04,0.61 0.06,1.14 0.06,1.59l0,3.4l-1.34,0l0,-6.14l2.18,0l1.35,3.64c0.1,0.29 0.18,0.58 0.23,0.88l0.03,0c0.08,-0.34 0.17,-0.64 0.26,-0.89l1.35,-3.63l2.12,0l0,6.14zm13.76,0l-1.62,0l-0.47,-1.37l-2.35,0l-0.46,1.37l-1.61,0l2.4,-6.14l1.76,0l2.35,6.14zm-2.43,-2.43l-0.71,-2.06c-0.05,-0.16 -0.09,-0.34 -0.11,-0.55l-0.03,0c-0.02,0.18 -0.06,0.36 -0.12,0.53l-0.72,2.08l1.69,0zm13.69,-2.58l-1.89,0l0,5.01l-1.49,0l0,-5.01l-1.87,0l0,-1.13l5.25,0l0,1.13zm9.78,5.12c-0.95,0 -1.72,-0.29 -2.31,-0.86c-0.6,-0.57 -0.89,-1.32 -0.89,-2.24c0,-0.97 0.3,-1.75 0.9,-2.35c0.61,-0.6 1.41,-0.9 2.4,-0.9c0.95,0 1.71,0.29 2.29,0.86c0.58,0.58 0.87,1.33 0.87,2.27c0,0.96 -0.3,1.74 -0.9,2.33c-0.61,0.59 -1.39,0.89 -2.36,0.89zm0.06,-5.16c-0.52,0 -0.93,0.18 -1.24,0.54c-0.31,0.37 -0.46,0.85 -0.46,1.45c0,0.6 0.15,1.09 0.46,1.44s0.71,0.53 1.21,0.53c0.51,0 0.92,-0.17 1.22,-0.52c0.3,-0.34 0.45,-0.81 0.45,-1.43c0,-0.63 -0.15,-1.13 -0.44,-1.48c-0.29,-0.35 -0.69,-0.53 -1.2,-0.53zm25.22,4.64c-0.64,0.34 -1.44,0.52 -2.4,0.52c-1.06,0 -1.9,-0.28 -2.51,-0.82c-0.61,-0.55 -0.92,-1.3 -0.92,-2.26c0,-0.96 0.34,-1.75 1.01,-2.36c0.67,-0.6 1.56,-0.91 2.67,-0.91c0.7,0 1.31,0.09 1.85,0.27l0,1.3c-0.51,-0.28 -1.14,-0.41 -1.87,-0.41c-0.62,0 -1.12,0.18 -1.51,0.55c-0.39,0.38 -0.58,0.87 -0.58,1.49c0,0.64 0.17,1.12 0.52,1.47c0.35,0.34 0.82,0.52 1.41,0.52c0.36,0 0.64,-0.05 0.85,-0.14l0,-1.2l-1.32,0l0,-1.11l2.81,0l0,3.09l-0.01,0zm13.28,0.41l-1.71,0l-1.02,-1.58c-0.08,-0.12 -0.15,-0.23 -0.22,-0.32c-0.07,-0.1 -0.15,-0.18 -0.22,-0.24c-0.07,-0.07 -0.14,-0.12 -0.22,-0.16c-0.08,-0.03 -0.17,-0.05 -0.26,-0.05l-0.4,0l0,2.35l-1.48,0l0,-6.14l2.35,0c1.6,0 2.4,0.56 2.4,1.67c0,0.21 -0.03,0.41 -0.1,0.59c-0.07,0.18 -0.17,0.35 -0.3,0.49c-0.13,0.15 -0.29,0.28 -0.47,0.38c-0.18,0.11 -0.38,0.19 -0.61,0.25l0,0.01c0.1,0.03 0.2,0.08 0.29,0.14c0.09,0.07 0.18,0.14 0.26,0.23c0.09,0.08 0.17,0.18 0.25,0.28c0.08,0.09 0.15,0.19 0.21,0.28l1.25,1.82zm-4.05,-5.1l0,1.7l0.64,0c0.32,0 0.58,-0.08 0.77,-0.25c0.2,-0.17 0.3,-0.39 0.3,-0.65c0,-0.53 -0.35,-0.8 -1.04,-0.8l-0.67,0zm13.82,5.21c-0.95,0 -1.72,-0.29 -2.31,-0.86c-0.6,-0.57 -0.89,-1.32 -0.89,-2.24c0,-0.97 0.3,-1.75 0.9,-2.35c0.61,-0.6 1.41,-0.9 2.4,-0.9c0.95,0 1.71,0.29 2.29,0.86c0.58,0.58 0.87,1.33 0.87,2.27c0,0.96 -0.3,1.74 -0.9,2.33c-0.61,0.59 -1.39,0.89 -2.36,0.89zm0.06,-5.16c-0.52,0 -0.93,0.18 -1.24,0.54c-0.31,0.37 -0.46,0.85 -0.46,1.45c0,0.6 0.15,1.09 0.46,1.44c0.31,0.35 0.71,0.53 1.21,0.53c0.51,0 0.91,-0.17 1.22,-0.52c0.3,-0.34 0.45,-0.81 0.45,-1.43c0,-0.63 -0.15,-1.13 -0.44,-1.48c-0.29,-0.35 -0.69,-0.53 -1.2,-0.53zm10.45,4.81l0,-1.36c0.26,0.2 0.55,0.36 0.87,0.46c0.31,0.11 0.63,0.16 0.95,0.16c0.18,0 0.35,-0.02 0.49,-0.05c0.13,-0.03 0.25,-0.07 0.35,-0.13c0.09,-0.05 0.16,-0.12 0.21,-0.2c0.04,-0.07 0.06,-0.15 0.06,-0.24c0,-0.12 -0.03,-0.23 -0.11,-0.32c-0.07,-0.1 -0.17,-0.18 -0.3,-0.26c-0.13,-0.08 -0.28,-0.16 -0.45,-0.23c-0.18,-0.08 -0.37,-0.15 -0.57,-0.23c-0.51,-0.2 -0.9,-0.44 -1.15,-0.73c-0.25,-0.29 -0.38,-0.64 -0.38,-1.05c0,-0.32 0.07,-0.59 0.21,-0.82c0.14,-0.23 0.32,-0.42 0.56,-0.57c0.24,-0.14 0.51,-0.26 0.83,-0.32c0.31,-0.07 0.64,-0.11 0.99,-0.11c0.35,0 0.65,0.02 0.91,0.06c0.27,0.04 0.52,0.1 0.74,0.18l0,1.28c-0.11,-0.07 -0.23,-0.14 -0.36,-0.19c-0.13,-0.05 -0.27,-0.1 -0.4,-0.13c-0.14,-0.04 -0.28,-0.07 -0.42,-0.08c-0.13,-0.02 -0.26,-0.03 -0.38,-0.03c-0.17,0 -0.33,0.01 -0.46,0.05c-0.14,0.02 -0.26,0.07 -0.35,0.12c-0.1,0.05 -0.17,0.12 -0.23,0.19c-0.05,0.08 -0.07,0.16 -0.07,0.26c0,0.1 0.03,0.2 0.08,0.28c0.06,0.08 0.14,0.16 0.25,0.23c0.11,0.07 0.24,0.14 0.39,0.21c0.15,0.07 0.33,0.14 0.52,0.22c0.27,0.1 0.5,0.21 0.71,0.33c0.21,0.11 0.39,0.24 0.54,0.39c0.15,0.14 0.27,0.31 0.35,0.5c0.08,0.18 0.12,0.4 0.12,0.65c0,0.34 -0.07,0.63 -0.21,0.86c-0.14,0.23 -0.33,0.42 -0.57,0.56c-0.24,0.15 -0.52,0.25 -0.84,0.31c-0.31,0.07 -0.65,0.1 -1,0.1c-0.36,0 -0.71,-0.03 -1.03,-0.09c-0.33,-0.06 -0.61,-0.14 -0.85,-0.26zm11.74,0l0,-1.36c0.26,0.2 0.55,0.36 0.87,0.46c0.31,0.11 0.63,0.16 0.95,0.16c0.18,0 0.35,-0.02 0.48,-0.05c0.14,-0.03 0.26,-0.07 0.35,-0.13c0.1,-0.05 0.17,-0.12 0.21,-0.2c0.05,-0.07 0.07,-0.15 0.07,-0.24c0,-0.12 -0.03,-0.23 -0.11,-0.32c-0.07,-0.1 -0.17,-0.18 -0.3,-0.26c-0.13,-0.08 -0.28,-0.16 -0.45,-0.23c-0.18,-0.08 -0.37,-0.15 -0.57,-0.23c-0.51,-0.2 -0.9,-0.44 -1.15,-0.73c-0.26,-0.29 -0.38,-0.64 -0.38,-1.05c0,-0.32 0.07,-0.59 0.21,-0.82c0.13,-0.23 0.32,-0.42 0.56,-0.57c0.24,-0.14 0.51,-0.26 0.83,-0.32c0.31,-0.07 0.64,-0.11 0.99,-0.11c0.34,0 0.65,0.02 0.91,0.06c0.27,0.04 0.51,0.1 0.74,0.18l0,1.28c-0.11,-0.07 -0.23,-0.14 -0.36,-0.19c-0.13,-0.05 -0.27,-0.1 -0.41,-0.13c-0.13,-0.04 -0.27,-0.07 -0.41,-0.08c-0.14,-0.02 -0.26,-0.03 -0.39,-0.03c-0.17,0 -0.32,0.01 -0.46,0.05c-0.13,0.02 -0.25,0.07 -0.35,0.12c-0.09,0.05 -0.17,0.12 -0.22,0.19c-0.05,0.08 -0.08,0.16 -0.08,0.26c0,0.1 0.03,0.2 0.09,0.28c0.06,0.08 0.14,0.16 0.25,0.23c0.11,0.07 0.24,0.14 0.39,0.21c0.15,0.07 0.33,0.14 0.52,0.22c0.26,0.1 0.5,0.21 0.71,0.33c0.21,0.11 0.39,0.24 0.54,0.39c0.15,0.14 0.27,0.31 0.35,0.5c0.08,0.18 0.12,0.4 0.12,0.65c0,0.34 -0.07,0.63 -0.21,0.86c-0.14,0.23 -0.33,0.42 -0.57,0.56c-0.24,0.15 -0.52,0.25 -0.84,0.31c-0.31,0.07 -0.65,0.1 -1,0.1c-0.36,0 -0.71,-0.03 -1.03,-0.09c-0.33,-0.06 -0.61,-0.14 -0.85,-0.26zm14.83,0.35c-0.95,0 -1.72,-0.29 -2.31,-0.86c-0.6,-0.57 -0.9,-1.32 -0.9,-2.24c0,-0.97 0.31,-1.75 0.91,-2.35c0.6,-0.6 1.41,-0.9 2.4,-0.9c0.94,0 1.71,0.29 2.29,0.86c0.58,0.58 0.87,1.33 0.87,2.27c0,0.96 -0.3,1.74 -0.91,2.33c-0.6,0.59 -1.38,0.89 -2.35,0.89zm0.06,-5.16c-0.52,0 -0.94,0.18 -1.24,0.54c-0.31,0.37 -0.46,0.85 -0.46,1.45c0,0.6 0.15,1.09 0.46,1.44c0.31,0.35 0.71,0.53 1.21,0.53c0.51,0 0.91,-0.17 1.21,-0.52c0.3,-0.34 0.45,-0.81 0.45,-1.43c0,-0.63 -0.14,-1.13 -0.43,-1.48c-0.29,-0.35 -0.69,-0.53 -1.2,-0.53zm19.81,5.05l0,-6.14l2.33,0c2.35,0 3.52,1 3.52,2.99c0,0.96 -0.32,1.72 -0.96,2.29c-0.64,0.57 -1.49,0.86 -2.55,0.86l-2.34,0zm1.48,-5.01l0,3.89l0.74,0c0.64,0 1.15,-0.18 1.52,-0.54c0.36,-0.36 0.54,-0.85 0.54,-1.47c0,-0.58 -0.18,-1.04 -0.54,-1.38c-0.36,-0.33 -0.87,-0.5 -1.53,-0.5l-0.73,0zm14.71,5.12c-0.95,0 -1.72,-0.29 -2.31,-0.86c-0.6,-0.57 -0.89,-1.32 -0.89,-2.24c0,-0.97 0.3,-1.75 0.9,-2.35c0.61,-0.6 1.41,-0.9 2.4,-0.9c0.95,0 1.71,0.29 2.29,0.86c0.58,0.58 0.87,1.33 0.87,2.27c0,0.96 -0.3,1.74 -0.9,2.33c-0.61,0.59 -1.39,0.89 -2.36,0.89zm0.06,-5.16c-0.52,0 -0.93,0.18 -1.24,0.54c-0.31,0.37 -0.46,0.85 -0.46,1.45c0,0.6 0.15,1.09 0.46,1.44c0.31,0.35 0.71,0.53 1.21,0.53c0.51,0 0.92,-0.17 1.22,-0.52c0.3,-0.34 0.45,-0.81 0.45,-1.43c0,-0.63 -0.15,-1.13 -0.44,-1.48c-0.29,-0.35 -0.69,-0.53 -1.2,-0.53zm19.5,4.81l0,-1.36c0.27,0.2 0.56,0.36 0.88,0.46c0.31,0.11 0.62,0.16 0.94,0.16c0.19,0 0.35,-0.02 0.49,-0.05c0.14,-0.03 0.26,-0.07 0.35,-0.13c0.1,-0.05 0.17,-0.12 0.21,-0.2c0.05,-0.07 0.07,-0.15 0.07,-0.24c0,-0.12 -0.04,-0.23 -0.11,-0.32c-0.07,-0.1 -0.17,-0.18 -0.3,-0.26c-0.13,-0.08 -0.28,-0.16 -0.45,-0.23c-0.18,-0.08 -0.37,-0.15 -0.57,-0.23c-0.51,-0.2 -0.9,-0.44 -1.15,-0.73c-0.26,-0.29 -0.38,-0.64 -0.38,-1.05c0,-0.32 0.07,-0.59 0.21,-0.82c0.13,-0.23 0.32,-0.42 0.56,-0.57c0.24,-0.14 0.51,-0.26 0.82,-0.32c0.32,-0.07 0.65,-0.11 1,-0.11c0.34,0 0.65,0.02 0.91,0.06c0.27,0.04 0.51,0.1 0.74,0.18l0,1.28c-0.11,-0.07 -0.23,-0.14 -0.36,-0.19c-0.14,-0.05 -0.27,-0.1 -0.41,-0.13c-0.13,-0.04 -0.27,-0.07 -0.41,-0.08c-0.14,-0.02 -0.26,-0.03 -0.39,-0.03c-0.17,0 -0.32,0.01 -0.46,0.05c-0.14,0.02 -0.25,0.07 -0.35,0.12c-0.09,0.05 -0.17,0.12 -0.22,0.19c-0.05,0.08 -0.08,0.16 -0.08,0.26c0,0.1 0.03,0.2 0.09,0.28c0.06,0.08 0.14,0.16 0.25,0.23c0.11,0.07 0.24,0.14 0.39,0.21c0.15,0.07 0.33,0.14 0.52,0.22c0.26,0.1 0.5,0.21 0.71,0.33c0.21,0.11 0.39,0.24 0.54,0.39c0.15,0.14 0.27,0.31 0.35,0.5c0.08,0.18 0.12,0.4 0.12,0.65c0,0.34 -0.07,0.63 -0.21,0.86c-0.14,0.23 -0.33,0.42 -0.57,0.56c-0.24,0.15 -0.52,0.25 -0.84,0.31c-0.31,0.07 -0.65,0.1 -1,0.1c-0.36,0 -0.71,-0.03 -1.03,-0.09c-0.33,-0.06 -0.61,-0.14 -0.86,-0.26zm17.43,-2.42c0,1.84 -0.93,2.77 -2.77,2.77c-1.8,0 -2.69,-0.91 -2.69,-2.71l0,-3.54l1.49,0l0,3.56c0,1 0.42,1.49 1.25,1.49c0.82,0 1.23,-0.48 1.23,-1.44l0,-3.61l1.49,0l0,3.48zm11.82,2.66l-3.93,0l0,-6.14l1.48,0l0,5.02l2.45,0l0,1.12z" fill="#ffffff" id="MatoGrossoDoSul"/>
  </g>
 </g>
</svg>